<?xml version="1.0" standalone="no"?>
<!DOCTYPE svg PUBLIC "-//W3C//DTD SVG 20010904//EN"
 "http://www.w3.org/TR/2001/REC-SVG-20010904/DTD/svg10.dtd">
<svg version="1.0" xmlns="http://www.w3.org/2000/svg"
 width="640.000000pt" height="367.000000pt" viewBox="0 0 640.000000 367.000000"
 preserveAspectRatio="xMidYMid meet">

<g transform="translate(0.000000,367.000000) scale(0.100000,-0.100000)"
fill="#000000" stroke="none">
<!-- <path d="M3300 3645 c-68 -73 -272 -187 -419 -234 -132 -44 -220 -56 -391 -55
-246 1 -447 48 -751 178 l-37 15 78 -157 c174 -348 241 -623 226 -922 -9 -186
-44 -339 -130 -563 l-26 -69 32 7 c41 9 41 10 79 125 52 162 78 270 95 405 18
149 15 239 -17 425 -19 117 -27 148 -62 275 -15 52 -59 167 -95 245 -31 67
-31 84 -3 88 13 2 33 -1 45 -6 51 -25 182 -59 256 -67 30 -4 61 -12 69 -18 20
-17 415 -15 496 2 92 19 166 40 210 61 22 10 65 29 95 41 30 13 81 40 113 61
32 21 61 38 63 38 3 0 26 16 51 35 25 19 49 35 54 35 4 0 21 -11 37 -25 55
-46 201 -133 279 -165 162 -68 295 -93 490 -92 172 0 359 30 513 83 47 16 93
29 102 29 27 0 31 -18 10 -48 -30 -43 -112 -211 -112 -230 0 -10 -4 -22 -9
-28 -12 -13 -37 -98 -55 -187 -23 -109 -30 -234 -21 -370 l7 -117 28 0 27 0
-4 178 c-4 140 -2 196 11 267 36 188 113 369 245 568 l71 107 -38 -16 c-615
-264 -1126 -240 -1516 71 -38 30 -70 55 -71 55 -1 0 -12 -11 -25 -25z"/>
<path d="M4750 1916 c0 -12 19 -59 71 -173 10 -23 19 -46 19 -50 0 -5 5 -14
11 -20 16 -16 132 -353 158 -457 15 -64 26 -223 17 -268 -4 -20 -20 -52 -36
-73 -27 -33 -102 -95 -116 -95 -3 0 -18 -8 -32 -18 -51 -34 -295 -117 -417
-142 -22 -4 -105 -25 -185 -45 -158 -40 -208 -52 -258 -61 -18 -4 -35 -11 -38
-15 -3 -5 -17 -9 -32 -9 -15 0 -40 -7 -56 -15 -15 -8 -39 -15 -52 -15 -13 0
-38 -6 -56 -14 -18 -7 -69 -29 -113 -47 -111 -46 -190 -95 -255 -156 -30 -29
-58 -53 -62 -53 -4 0 -15 12 -25 28 -23 37 -65 82 -76 82 -5 0 -23 11 -39 26
-61 51 -229 121 -358 149 -41 9 -88 20 -105 25 -16 5 -93 21 -170 35 -77 15
-194 38 -260 52 -66 15 -136 28 -155 30 -19 2 -44 8 -55 13 -11 5 -61 23 -111
39 -97 31 -214 87 -214 102 0 5 -7 9 -15 9 -20 0 -128 108 -148 149 -33 66
-18 213 31 314 8 16 -58 6 -67 -10 -20 -40 -43 -177 -39 -238 3 -54 10 -72 43
-121 74 -107 218 -201 401 -262 99 -33 329 -86 554 -127 299 -55 503 -117 610
-186 104 -67 150 -126 190 -244 l17 -50 22 67 c30 90 69 141 150 193 136 88
260 130 737 249 187 46 388 100 448 120 206 68 342 160 387 261 20 44 21 60
15 150 -3 55 -15 140 -26 190 -26 114 -101 335 -152 445 -22 47 -46 103 -54
124 -32 87 -57 126 -81 126 -13 0 -23 -6 -23 -14z"/> -->

<!-- pierwsza cwiartka -->
<path d="M3300 3645 
q -700 -600 -1640 -110
q 680 -500 180 -1675
l 1460 0
l 0 1785 z"
style="fill:#0094DE;stroke:black;stroke-width:15;opacity:1"/>

<!-- druga ćwiartka -->
<path d="M3300 3645 
q 700 -600 1640 -110
q -680 -500 -180 -1675
l -1460 0
l 0 1785 z"
style="fill:#DB261F;stroke:black;stroke-width:15;opacity:1"/>

<!-- trzecia ćwiartka -->
<path d="M3300 1860 
l 1460 0 
q 120 -310 280 -625
q 150 -500 -300 -580
q -1440 -200 -1440 -580
l 0 1785
z"
style="fill:#0094DE;stroke:black;stroke-width:15;opacity:1"/>

<!-- czwarta ćwiartka -->
<path d="M3300 1860 
l 0 -1780 
q -0 380 -1440 580
q -500 150 -300 580
q 160 315 280 625
z"
style="fill:#DB261F;stroke:black;stroke-width:15;opacity:1"/>

<!-- obwód tarczy -->
<path d="M3300 3645
q 700 -600 1640 -110
q -800 -500 100 -2300
q 150 -500 -300 -580
q -1440 -200 -1440 -580
q 0 400 -1440 580
q -500 150 -300 580
q 900 1800 100 2300
q 940 -490 1640 110 z
" style="fill:none;stroke:black;stroke-width:30;opacity:1"/>


<!-- linie pomocnicze -->
<!-- <path d="M3300 3645 l 0 -1785 l -1500 0"
style="fill:yellow;stroke:blue;stroke-width:30;opacity:0.1"/> -->

<!-- <path d="M3300 3645 l 0 -3570"
style="fill:yellow;stroke:blue;stroke-width:30;opacity:0.1"/> -->
</g>
</svg>
