<?xml version="1.0" standalone="no"?>
<!DOCTYPE svg PUBLIC "-//W3C//DTD SVG 20010904//EN"
 "http://www.w3.org/TR/2001/REC-SVG-20010904/DTD/svg10.dtd">
<svg version="1.0" xmlns="http://www.w3.org/2000/svg"
 width="640.000000pt" height="367.000000pt" viewBox="0 0 640.000000 367.000000"
 preserveAspectRatio="xMidYMid meet">

<g transform="translate(0.000000,367.000000) scale(0.100000,-0.100000)"
fill="#000000" stroke="none">
    <!-- tarcza -->
    <!-- pierwsza cwiartka -->
    <path d="M3400 3645 
    q -700 -600 -1640 -110
    q 680 -500 180 -1675
    l 1460 0
    l 0 1785 z"
    style="fill:#0094DE;stroke:black;stroke-width:15;opacity:1"/>

    <!-- druga ćwiartka -->
    <path d="M3400 3645 
    q 700 -600 1640 -110
    q -680 -500 -180 -1675
    l -1460 0
    l 0 1785 z"
    style="fill:#DB261F;stroke:black;stroke-width:15;opacity:1"/>

    <!-- trzecia ćwiartka -->
    <path d="M3400 1860 
    l 1460 0 
    q 120 -310 280 -625
    q 150 -500 -300 -580
    q -1440 -200 -1440 -580
    l 0 1785
    z"
    style="fill:#0094DE;stroke:black;stroke-width:15;opacity:1"/>

    <!-- czwarta ćwiartka -->
    <path d="M3400 1860 
    l 0 -1780 
    q -0 380 -1440 580
    q -500 150 -300 580
    q 160 315 280 625
    z"
    style="fill:#DB261F;stroke:black;stroke-width:15;opacity:1"/>

    <!-- obwód tarczy -->
    <path d="M3400 3645
    q 700 -600 1640 -110
    q -800 -500 100 -2300
    q 150 -500 -300 -580
    q -1440 -200 -1440 -580
    q 0 400 -1440 580
    q -500 150 -300 580
    q 900 1800 100 2300
    q 940 -490 1640 110 z
    " style="fill:none;stroke:black;stroke-width:50;opacity:1"/>
    <!-- piłka -->
    <g transform="translate(300,900) scale(0.9,0.9)">
    <circle r="350" cx="4200" cy="2000" fill="#0094DE"/>
        <g style="fill:#DB261F;stroke:#DB261F;stroke-width:45">
        <path d="M4200 2350 v-700"/>
        <path d="M3850 2000 h 700"/>
        <path d="M4020 2520 a 100 240 1 0 1 360 0" style="fill:none;"/>
        <path d="M4020 1490 a 100 240 1 0 0 360 0" style="fill:none;"/>
        </g>
    </g>       
    <!-- atom -->
    <g transform="translate(100,0)" style="fill:none;stroke:#0094DE;stroke-width:45">
    <ellipse rx="150" ry="400" cx="2550" cy="1300"/>
    <ellipse rx="150" ry="400" cx="2550" cy="1300" transform="rotate(65, 2550, 1300)"/>
    <ellipse rx="150" ry="400" cx="2550" cy="1300" transform="rotate(-65, 2550, 1300)"/>
    <circle r="60" cx="2550" cy="1300" fill="#0094DE" stroke="none"/>
    </g>    
    <!-- wstęga -->
    <path d="M1820 1780 l -40 230
    q-610 -150 -610 -300
    c 1200 0, 2400 850, 3900 630
    l 140 -650
    l -135 600
    q 600 0 1200 400
    l -460 -500
    l 560 -120
    q -600 -400 -1400 -400
    l -50 130
    q 100 -20 290 -110
    c -800 500, -2400 -500, -3900 -560
    l -145 580
    l 125 -500
    q -600 0 -1200 -400
    l 500 550
    l -580 100
    q 600 400 1780 560
    q-610 -150 -610 -300" style="fill:white;stroke:black;stroke-width:30;fill-opacity:1.0"/>
    <!-- ZSO2 -->
    <path d="M3876 2185 c-15 -13 -29 -39 -32 -58 l-7 -35 22 28 c13 15 32 27 46
    27 65 0 73 -78 20 -188 -20 -43 -29 -72 -22 -72 7 1 46 9 87 19 l75 18 3 48
    c3 48 3 48 -15 28 -15 -17 -103 -49 -103 -37 0 2 14 27 31 56 43 72 49 131 19
    163 -31 33 -89 34 -124 3z"/>
    <path d="M3238 2035 c-121 -39 -162 -169 -82 -264 89 -106 294 -26 294 116 0
    116 -97 184 -212 148z m73 -28 c30 -23 52 -82 57 -153 4 -68 3 -72 -23 -92
    -34 -27 -55 -28 -88 -2 -55 44 -83 195 -43 239 21 23 71 28 97 8z"/>
    <path d="M2836 1912 c-4 -7 -29 -12 -55 -12 -80 0 -132 -56 -110 -120 13 -36
    43 -53 121 -70 66 -13 94 -40 77 -72 -25 -47 -109 -42 -149 9 -23 29 -25 20
    -9 -43 9 -36 14 -42 23 -30 6 8 36 16 70 18 51 4 63 9 88 37 63 70 23 138 -93
    160 -35 7 -70 18 -76 23 -37 30 13 86 64 73 16 -3 41 -18 56 -33 l29 -27 -8
    30 c-13 55 -20 69 -28 57z"/>
    <path d="M2345 1780 c-16 -5 -65 -16 -107 -25 l-76 -17 5 -36 c8 -50 19 -60
    26 -23 4 17 17 37 29 45 31 19 88 31 88 17 0 -5 -22 -74 -50 -152 -27 -79 -48
    -145 -45 -147 5 -5 249 48 265 58 9 5 10 23 5 61 l-7 53 -13 -37 c-7 -21 -18
    -44 -25 -52 -14 -16 -118 -50 -127 -42 -3 3 18 74 45 156 54 163 55 160 -13
    141z"/>    
    <!-- książka -->
    <path 
    d="M2390 3000 h350 
    a 100 80 0 0 0 60 -60
    a 100 80 0 0 0 60 60
    h350 v-500
    a 80 80 0 0 0 -80 -80
    h-270
    a 100 80 0 0 1 -60 -60
    v 580
    v -580
    a 100 80 0 0 1 -60 60
    h-270
    a 80 80 0 0 0 -80 80
    z"
    style="fill:white;stroke:black;stroke-width:15"/>
    <!-- koniczyna -->
    <g transform="translate(80.00,-00.00)"
        stroke="black" stroke-width="15" fill="white">
        <path transform="rotate(-25, 4270 1550)"
        d="M4270 1550 v-200 h200 
        a100,100 90 0,1 0,200
        a100,100 90 0,1 -200,0
        z"/>
        <path transform="rotate(-115, 4270 1550)"
        d="M 4470 1550 h200 
        a100,100 90 0,1 0,200
        a100,100 90 0,1 -200,0
        z"/>
        <path transform="rotate(-205, 4270 1550)"
        d="M 4270 1550 v200 h200 
        a100,100 90 0,1 0,200
        a100,100 90 0,1 -200,0
        z" />
        <path transform="rotate(-295, 4270 1550)"
        d="M 4070 1550 h200 
        a100,100 90 0,1 0,200
        a100,100 90 0,1 -200,0
        z"/>
        <circle r="120" cx="4185" cy="1370" fill="white" stroke="none" />
        <path 
        d="M4105 1195 
        q -180 -400 -200 -400
        q -50 -0 200 400"/>
    </g>
</g>
</svg>
