<?xml version="1.0" standalone="no"?>
<!DOCTYPE svg PUBLIC "-//W3C//DTD SVG 20010904//EN"
 "http://www.w3.org/TR/2001/REC-SVG-20010904/DTD/svg10.dtd">
<svg version="1.0" xmlns="http://www.w3.org/2000/svg"
 width="640.000000pt" height="367.000000pt" viewBox="0 0 640.000000 367.000000"
 preserveAspectRatio="xMidYMid meet">

<g transform="translate(0.000000,367.000000) scale(0.100000,-0.100000)"
fill="#000000" stroke="none">
<path d="M2290 2636 
c0 -250 2 -285 16 -290 9 -3 86 -6 171 -6 151 0 157 -1 189 -25 18 -14 36 -25 40 -25 4 0 22 11 40 25 31 24 38 25 181 25 106 0 154 4
167 13 16 12 17 35 14 287 
l-3 275 -160 3 
c-149 2 -162 1 -202 -20 
l-43 -23 -40 23 
c-36 20 -51 22 -204 22 
l-166 0 0 -284z 
m413 237 
v -580
z"
style="fill:white;stroke:black;stroke-width:10"/>

<path 
d="M2290 3000 h350 
a 100 80 0 0 0 60 -60
a 100 80 0 0 0 60 60
h350 v-500
a 80 80 0 0 0 -80 -80
h-270
a 100 80 0 0 1 -60 -60
v 580
v -580
a 100 80 0 0 1 -60 60
h-270
a 80 80 0 0 0 -80 80
z"
style="fill:white;stroke:black;stroke-width:15"/>

</g>
</svg>
