<?xml version="1.0" standalone="no"?>
<!DOCTYPE svg PUBLIC "-//W3C//DTD SVG 20010904//EN"
 "http://www.w3.org/TR/2001/REC-SVG-20010904/DTD/svg10.dtd">
<svg version="1.0" xmlns="http://www.w3.org/2000/svg"
 xmlns:xlink="http://www.w3.org/1999/xlink"
 width="640.000000pt" height="367.000000pt" viewBox="0 0 640.000000 367.000000"
 preserveAspectRatio="xMidYMid meet">

<g transform="translate(0.000000,367.000000) scale(0.100000,-0.100000)"
fill="#000000" stroke="none">
    <!-- tarcza -->
    <!-- pierwsza cwiartka -->
    <path d="M3400 3645 
    q -700 -600 -1640 -110
    q 680 -500 180 -1675
    l 1460 0
    l 0 1785 z"
    style="fill:#002395;stroke:black;stroke-width:15;opacity:1"/>

    <!-- druga ćwiartka -->
    <path d="M3400 3645 
    q 700 -600 1640 -110
    q -680 -500 -180 -1675
    l -1460 0
    l 0 1785 z"
    style="fill:#ed2939;stroke:black;stroke-width:15;opacity:1"/>

    <!-- trzecia ćwiartka -->
    <path d="M3400 1860 
    l 1460 0 
    q 120 -310 280 -625
    q 150 -500 -300 -580
    q -1440 -200 -1440 -580
    l 0 1785
    z"
    style="fill:#002395;stroke:black;stroke-width:15;opacity:1"/>

    <!-- czwarta ćwiartka -->
    <path d="M3400 1860 
    l 0 -1780 
    q -0 380 -1440 580
    q -500 150 -300 580
    q 160 315 280 625
    z"
    style="fill:#ed2939;stroke:black;stroke-width:15;opacity:1"/>

    <!-- obwód tarczy -->
    <path d="M3400 3645
    q 700 -600 1640 -110
    q -800 -500 100 -2300
    q 150 -500 -300 -580
    q -1440 -200 -1440 -580
    q 0 400 -1440 580
    q -500 150 -300 580
    q 900 1800 100 2300
    q 940 -490 1640 110 z
    " style="fill:none;stroke:black;stroke-width:50;opacity:1"/>
    <!-- piłka -->
    <g transform="translate(300,900) scale(0.9,0.9)">
    <circle r="350" cx="4200" cy="2000" fill="#002395"/>
        <g style="fill:#ed2939;stroke:#ed2939;stroke-width:45">
        <path d="M4200 2350 v-700"/>
        <path d="M3850 2000 h 700"/>
        <path d="M4020 2520 a 100 240 1 0 1 360 0" style="fill:none;"/>
        <path d="M4020 1490 a 100 240 1 0 0 360 0" style="fill:none;"/>
        </g>
    </g>       
    <!-- atom -->
    <g transform="translate(100,0)" style="fill:none;stroke:#002395;stroke-width:30">
    <ellipse rx="150" ry="400" cx="2550" cy="1300"/>
    <ellipse rx="150" ry="400" cx="2550" cy="1300" transform="rotate(65, 2550, 1300)"/>
    <ellipse rx="150" ry="400" cx="2550" cy="1300" transform="rotate(-65, 2550, 1300)"/>
    <circle r="60" cx="2550" cy="1300" fill="#002395" stroke="none"/>
    </g>
    <!-- książka -->
    <path 
    d="M2390 3000 h350 
    a 100 80 0 0 0 60 -60
    a 100 80 0 0 0 60 60
    h350 v-500
    a 80 80 0 0 0 -80 -80
    h-270
    a 100 80 0 0 1 -60 -60
    v 580
    v -580
    a 100 80 0 0 1 -60 60
    h-270
    a 80 80 0 0 0 -80 80
    z"
    style="fill:white;stroke:black;stroke-width:20"/>
    <!-- koniczyna -->
    <g transform="translate(80.00,-00.00)"
        stroke="black" stroke-width="10" fill="white">
        <path transform="rotate(-25, 4270 1550)"
        d="M4270 1550 v-200 h200 
        a100,100 90 0,1 0,200
        a100,100 90 0,1 -200,0
        z"/>
        <path transform="rotate(-115, 4270 1550)"
        d="M 4470 1550 h200 
        a100,100 90 0,1 0,200
        a100,100 90 0,1 -200,0
        z"/>
        <path transform="rotate(-205, 4270 1550)"
        d="M 4270 1550 v200 h200 
        a100,100 90 0,1 0,200
        a100,100 90 0,1 -200,0
        z" />
        <path transform="rotate(-295, 4270 1550)"
        d="M 4070 1550 h200 
        a100,100 90 0,1 0,200
        a100,100 90 0,1 -200,0
        z"/>
        <circle r="60" cx="4185" cy="1370" fill="white" stroke="none" />
        <path 
        d="M4105 1195 
        q -180 -160 -100 -320
        q 30 -50 50 0
        q -80 160 35 300"/>
    </g>    
    <!-- wstęga -->
    <path d="M1820 1780 l -40 230
    q-610 -150 -610 -300
    c 1200 0, 2400 850, 3900 630
    l 140 -650
    l -130 600
    q 600 0 1200 400
    l -460 -500
    l 560 -120
    q -600 -400 -1400 -400
    l -50 130
    q 100 -20 290 -110
    c -800 500, -2400 -500, -3900 -560
    l -151 580
    l 125 -500
    q -600 0 -1200 -400
    l 500 550
    l -580 100
    q 600 400 1780 560
    q-610 -150 -610 -300"  fill="white" stroke="black" stroke-width="30" fill-opacity="1.0"/>
    <!-- ZSO2 -->
    <!-- <path id="curve" d="M2400 01800 c 2000 200 2400 -150 , 3300 150" 
    transform="rotate(14, 3500, -1800) scale(1,1)" 
    fill="transparent"
    stroke="black" stroke-width="30"/> -->
    <text x="2400" y="-1700" 
    textLength="14em" 
    font-family="Times New Roman, Arial, Helvetica, Verdana"
    font-weight="bold"
    transform="rotate(14, 3500, 1800) scale(1,-1)" 
    font-size="15em">XVI Liceum Ogólnokształcące
        <!-- <textPath xlink:href="#curve">XVI Liceum Ogólnokształcące</textPath> -->
    </text>
</g>
</svg>
