<?xml version="1.0" standalone="no"?>
<!DOCTYPE svg PUBLIC "-//W3C//DTD SVG 20010904//EN"
 "http://www.w3.org/TR/2001/REC-SVG-20010904/DTD/svg10.dtd">
<svg version="1.0" xmlns="http://www.w3.org/2000/svg"
 width="640.000000pt" height="367.000000pt" viewBox="0 0 640.000000 367.000000"
 preserveAspectRatio="xMidYMid meet">
<g transform="translate(5.000000,375.000000) scale(0.100000,-0.100000)"
stroke="black" stroke-width="10" fill="white">
<path transform="rotate(-25, 4270 1550)"
d="M4270 1550 v-200 h200 
a100,100 90 0,1 0,200
a100,100 90 0,1 -200,0
z"/>
<path transform="rotate(-115, 4270 1550)"
d="M 4470 1550 h200 
a100,100 90 0,1 0,200
a100,100 90 0,1 -200,0
z"/>
<path transform="rotate(-205, 4270 1550)"
d="M 4270 1550 v200 h200 
a100,100 90 0,1 0,200
a100,100 90 0,1 -200,0
z" />
<path transform="rotate(-295, 4270 1550)"
d="M 4070 1550 h200 
a100,100 90 0,1 0,200
a100,100 90 0,1 -200,0
z"/>
<circle r="120" cx="4185" cy="1370" fill="white" stroke="none" />
<path 
d="M4105 1195 
q -180 -400 -200 -400
q -50 -0 200 400"/>
</g>
</svg>
