<?xml version="1.0" standalone="no"?>
<!DOCTYPE svg PUBLIC "-//W3C//DTD SVG 20010904//EN"
 "http://www.w3.org/TR/2001/REC-SVG-20010904/DTD/svg10.dtd">
<svg version="1.0" xmlns="http://www.w3.org/2000/svg"
 width="640.000000pt" height="367.000000pt" viewBox="0 0 640.000000 367.000000"
 preserveAspectRatio="xMidYMid meet">

<g transform="translate(0.000000,367.000000) scale(0.100000,-0.100000)"
fill="#000000" stroke="none">

<path d="M3300 3645 c-68 -73 -272 -187 -419 -234 -132 -44 -220 -56 -391 -55
-246 1 -447 48 -751 178 l-37 15 78 -157 c91 -182 141 -312 181 -468 84 -334
55 -680 -86 -1016 -26 -63 -40 -48 -62 60 l-19 97 -49 -3 c-28 -2 -106 -16
-175 -33 -69 -16 -192 -45 -275 -64 -376 -89 -828 -248 -1214 -428 -83 -39
-83 -38 39 -52 67 -8 360 -62 413 -76 44 -12 44 -14 -33 -96 -162 -174 -342
-371 -357 -394 -8 -10 29 5 90 37 314 164 671 297 907 338 152 27 143 28 155
-29 l11 -50 117 0 c64 0 117 -3 117 -7 0 -4 -7 -37 -16 -75 -9 -40 -14 -96
-12 -135 3 -58 9 -74 43 -123 74 -108 218 -202 401 -263 99 -33 329 -86 554
-127 299 -55 503 -117 610 -186 104 -67 150 -126 190 -244 l17 -50 22 67 c30
90 69 141 150 193 136 88 260 130 737 249 187 46 388 100 448 120 206 68 342
160 387 261 20 44 21 60 15 150 -10 160 -69 381 -157 589 -16 37 -29 69 -29
71 0 1 21 6 48 9 298 42 677 139 967 248 172 65 465 196 465 209 0 8 5 7 -302
70 -120 24 -218 49 -218 54 0 6 19 30 43 55 67 70 372 413 381 428 5 8 -16 0
-45 -18 -162 -94 -412 -208 -583 -266 -178 -60 -414 -116 -531 -126 -39 -3
-39 -2 -48 38 l-8 41 -62 7 c-34 3 -132 9 -218 13 l-157 6 -6 36 c-3 20 -6 96
-6 169 0 272 75 496 259 775 l71 107 -38 -16 c-615 -264 -1126 -240 -1516 71
-38 30 -70 55 -71 55 -1 0 -12 -11 -25 -25z m2830 -989 c0 -2 -76 -88 -169
-192 -93 -104 -167 -192 -165 -195 2 -3 111 -28 244 -55 132 -27 240 -52 240
-55 0 -17 -360 -165 -555 -229 -128 -42 -464 -130 -494 -130 -13 0 -23 29 -43
123 -15 67 -41 182 -58 255 -16 73 -30 137 -30 142 0 5 21 12 48 15 269 37
585 135 865 270 126 60 117 56 117 51z m-1285 -227 c104 -6 191 -12 193 -14 2
-1 30 -121 63 -266 32 -145 61 -274 64 -286 6 -28 8 -28 -57 -3 -123 45 -218
61 -398 67 -332 10 -676 -55 -1310 -247 -640 -195 -783 -236 -1000 -291 -377
-94 -679 -139 -935 -139 l-133 0 -5 28 c-3 15 -29 127 -57 250 -27 123 -50
227 -50 231 0 4 75 12 167 19 418 30 651 85 1538 362 792 247 1305 324 1920
289z m-3064 -474 c6 -41 12 -78 12 -82 1 -11 -105 -29 -273 -48 -158 -17 -284
-20 -275 -6 13 22 158 110 230 140 77 32 215 69 267 70 25 1 27 -2 39 -74z
m-441 -19 c0 -2 -19 -16 -41 -31 -23 -15 -61 -45 -84 -66 l-42 -39 48 -212
c27 -117 49 -218 49 -225 0 -6 -31 -16 -72 -23 -252 -41 -569 -150 -852 -292
-32 -16 -60 -28 -61 -26 -2 2 76 91 174 198 l179 195 -42 13 c-54 16 -315 68
-389 77 -31 4 -59 11 -62 15 -10 16 439 198 705 286 92 30 457 132 478 133 6
1 12 -1 12 -3z m3645 -76 c98 -25 188 -61 178 -70 -13 -13 -275 -52 -284 -43
-4 4 -19 38 -33 75 l-25 67 47 -6 c26 -3 79 -14 117 -23z"
    style="fill:blue;stroke:black;stroke-width:50"/>
<path d="M3976 2278 c-15 -13 -29 -39 -32 -58 l-7 -35 22 28 c13 15 32 27 46
27 65 0 73 -78 20 -188 -20 -43 -29 -72 -22 -72 7 1 46 9 87 19 l75 18 3 48
c3 48 3 48 -15 28 -15 -17 -103 -49 -103 -37 0 2 14 27 31 56 43 72 49 131 19
163 -31 33 -89 34 -124 3z"/>
<path d="M3238 2085 c-121 -39 -162 -169 -82 -264 89 -106 294 -26 294 116 0
116 -97 184 -212 148z m73 -28 c30 -23 52 -82 57 -153 4 -68 3 -72 -23 -92
-34 -27 -55 -28 -88 -2 -55 44 -83 195 -43 239 21 23 71 28 97 8z"/>
<path d="M2836 1962 c-4 -7 -29 -12 -55 -12 -80 0 -132 -56 -110 -120 13 -36
43 -53 121 -70 66 -13 94 -40 77 -72 -25 -47 -109 -42 -149 9 -23 29 -25 20
-9 -43 9 -36 14 -42 23 -30 6 8 36 16 70 18 51 4 63 9 88 37 63 70 23 138 -93
160 -35 7 -70 18 -76 23 -37 30 13 86 64 73 16 -3 41 -18 56 -33 l29 -27 -8
30 c-13 55 -20 69 -28 57z"/>
<path d="M2345 1840 c-16 -5 -65 -16 -107 -25 l-76 -17 5 -36 c8 -50 19 -60
26 -23 4 17 17 37 29 45 31 19 88 31 88 17 0 -5 -22 -74 -50 -152 -27 -79 -48
-145 -45 -147 5 -5 249 48 265 58 9 5 10 23 5 61 l-7 53 -13 -37 c-7 -21 -18
-44 -25 -52 -14 -16 -118 -50 -127 -42 -3 3 18 74 45 156 54 163 55 160 -13
141z"/>
</g>
</svg>
