<?xml version="1.0" standalone="no"?>
<!DOCTYPE svg PUBLIC "-//W3C//DTD SVG 20010904//EN"
 "http://www.w3.org/TR/2001/REC-SVG-20010904/DTD/svg10.dtd">
<svg version="1.0" xmlns="http://www.w3.org/2000/svg"
 width="640.000000pt" height="367.000000pt" viewBox="0 0 640.000000 367.000000"
 preserveAspectRatio="xMidYMid meet">

<g transform="translate(0.000000,367.000000) scale(0.100000,-0.100000)"
fill="white" stroke="black" stroke-width="10" >
<path d="M4183 1690 
c17 -16 29 -41 36 -78 10 -51 9 -61 -15 -120 -29 -72 -28 -87 3 -37 27 44 121 132 150 142 45 14 88 -3 106 -41 16 -33 16 -36 -4 -70 -27 -45 -27 -50 8 -70 54 -32
65 -87 26 -124 -37 -34 -122 -39 -194 -11 -29 12 -55 20 -58 18 -2 -3 25 -21 61 -41 106 -59 146 -124 109 -174 -27 -37 -81 -50 -121 -30 -29 15 -31 15 -36
-7 -10 -40 -55 -85 -84 -85 -77 1 -118 131 -77 245 23 62 18 62 -25 -2 -40
-60 -60 -75 -139 -99 -84 -25 -133 26 -109 112 l13 47 -39 38 c-34 34 -38 43
-32 71 9 48 29 61 93 66 54 4 65 1 155 -47 53 -28 101 -51 105 -51 9 0 -39 39
-49 40 -4 0 -36 20 -72 45 -109 77 -133 164 -58 208 32 19 33 19 69 -3 24 -14
39 -18 41 -11 7 22 55 73 76 81 30 13 32 12 61 -12
m-125 -550 
c-350 -800 -150 -152 50 120 z
"/>
</g>
</svg>
