<?xml version="1.0" standalone="no"?>
<!DOCTYPE svg PUBLIC "-//W3C//DTD SVG 20010904//EN"
 "http://www.w3.org/TR/2001/REC-SVG-20010904/DTD/svg10.dtd">
<svg version="1.0" xmlns="http://www.w3.org/2000/svg"
 width="640.000000pt" height="367.000000pt" viewBox="0 0 640.000000 367.000000"
 preserveAspectRatio="xMidYMid meet">

<g transform="translate(0.000000,367.000000) scale(0.100000,-0.100000)"
fill="#000000" stroke="none">
<path d="M3300 3645 c-68 -73 -272 -187 -419 -234 -132 -44 -220 -56 -391 -55
-246 1 -447 48 -751 178 l-37 15 78 -157 c91 -182 141 -312 181 -468 84 -334
55 -680 -86 -1016 -26 -63 -40 -48 -62 60 l-19 97 -49 -3 c-28 -2 -106 -16
-175 -33 -69 -16 -192 -45 -275 -64 -376 -89 -828 -248 -1214 -428 -83 -39
-83 -38 39 -52 67 -8 360 -62 413 -76 44 -12 44 -14 -33 -96 -162 -174 -342
-371 -357 -394 -8 -10 29 5 90 37 314 164 671 297 907 338 152 27 143 28 155
-29 l11 -50 117 0 c64 0 117 -3 117 -7 0 -4 -7 -37 -16 -75 -9 -40 -14 -96
-12 -135 3 -58 9 -74 43 -123 74 -108 218 -202 401 -263 99 -33 329 -86 554
-127 299 -55 503 -117 610 -186 104 -67 150 -126 190 -244 l17 -50 22 67 c30
90 69 141 150 193 136 88 260 130 737 249 187 46 388 100 448 120 206 68 342
160 387 261 20 44 21 60 15 150 -10 160 -69 381 -157 589 -16 37 -29 69 -29
71 0 1 21 6 48 9 298 42 677 139 967 248 172 65 465 196 465 209 0 8 5 7 -302
70 -120 24 -218 49 -218 54 0 6 19 30 43 55 67 70 372 413 381 428 5 8 -16 0
-45 -18 -162 -94 -412 -208 -583 -266 -178 -60 -414 -116 -531 -126 -39 -3
-39 -2 -48 38 l-8 41 -62 7 c-34 3 -132 9 -218 13 l-157 6 -6 36 c-3 20 -6 96
-6 169 0 272 75 496 259 775 l71 107 -38 -16 c-615 -264 -1126 -240 -1516 71
-38 30 -70 55 -71 55 -1 0 -12 -11 -25 -25z m23 -115 c3 -12 0 -20 -7 -20 -6
0 -12 9 -13 20 -1 11 2 20 6 20 5 0 11 -9 14 -20z m-192 -124 c5 3 9 1 9 -5 0
-6 -9 -15 -19 -21 -25 -13 -42 -13 -19 1 9 5 16 15 14 22 -1 6 -1 9 1 4 3 -4
9 -5 14 -1z m-101 -46 c8 -5 11 -10 5 -10 -5 0 -17 5 -25 10 -8 5 -10 10 -5
10 6 0 17 -5 25 -10z m-1093 -6 c-3 -3 -12 -4 -19 -1 -8 3 -5 6 6 6 11 1 17
-2 13 -5z m943 -34 c0 -5 -10 -10 -22 -9 -22 0 -22 1 -3 9 11 5 21 9 23 9 1 1
2 -3 2 -9z m-765 -10 c-27 -12 -35 -12 -35 0 0 6 12 10 28 9 24 0 25 -1 7 -9z
m113 -17 c-10 -2 -26 -2 -35 0 -10 3 -2 5 17 5 19 0 27 -2 18 -5z m532 -7 c0
-2 -9 -6 -20 -9 -11 -3 -20 -1 -20 4 0 5 9 9 20 9 11 0 20 -2 20 -4z m87 -2
c-3 -3 -12 -4 -19 -1 -8 3 -5 6 6 6 11 1 17 -2 13 -5z m-740 -20 c-3 -3 -12
-4 -19 -1 -8 3 -5 6 6 6 11 1 17 -2 13 -5z m773 -14 c0 -5 -9 -10 -21 -10 -11
0 -17 5 -14 10 3 6 13 10 21 10 8 0 14 -4 14 -10z m-884 -45 c0 -25 -3 -31 -9
-20 -7 13 -2 55 7 55 1 0 2 -16 2 -35z m244 25 c0 -5 -9 -10 -19 -10 -11 0
-23 5 -26 10 -4 6 5 10 19 10 14 0 26 -4 26 -10z m-192 -200 c0 -23 -1 -22
-14 9 -8 18 -12 41 -8 50 5 13 8 11 14 -9 5 -14 8 -36 8 -50z m219 -6 c-3 -3
-12 -4 -19 -1 -8 3 -5 6 6 6 11 1 17 -2 13 -5z m121 -1 c-10 -2 -26 -2 -35 0
-10 3 -2 5 17 5 19 0 27 -2 18 -5z m485 0 c-7 -2 -21 -2 -30 0 -10 3 -4 5 12
5 17 0 24 -2 18 -5z m225 0 c-10 -2 -28 -2 -40 0 -13 2 -5 4 17 4 22 1 32 -1
23 -4z m869 -15 c-3 -8 -6 -5 -6 6 -1 11 2 17 5 13 3 -3 4 -12 1 -19z m88 12
c-3 -5 -10 -10 -16 -10 -5 0 -9 5 -9 10 0 6 7 10 16 10 8 0 12 -4 9 -10z
m-155 -30 c0 -5 -15 -10 -32 -10 -25 0 -29 3 -18 10 20 13 50 13 50 0z m40 -6
c0 -8 -4 -12 -10 -9 -5 3 -10 10 -10 16 0 5 5 9 10 9 6 0 10 -7 10 -16z m190
1 c7 -8 8 -15 2 -15 -5 0 -15 7 -22 15 -7 8 -8 15 -2 15 5 0 15 -7 22 -15z
m-1773 -1 c-3 -3 -12 -4 -19 -1 -8 3 -5 6 6 6 11 1 17 -2 13 -5z m1704 -18
c-5 -6 -11 -20 -14 -31 -3 -12 -5 -4 -6 17 -1 30 2 36 14 32 10 -4 12 -10 6
-18z m-1181 -6 c0 -5 -10 -10 -22 -9 -22 0 -22 1 -3 9 11 5 21 9 23 9 1 1 2
-3 2 -9z m204 4 c26 -10 18 -20 -14 -19 -17 0 -30 5 -30 12 0 14 19 17 44 7z
m-804 -24 c0 -5 -2 -10 -4 -10 -3 0 -8 5 -11 10 -3 6 -1 10 4 10 6 0 11 -4 11
-10z m355 0 c-3 -5 -12 -10 -18 -10 -7 0 -6 4 3 10 19 12 23 12 15 0z m1271
-17 c-7 -7 -26 7 -26 19 0 6 6 6 15 -2 9 -7 13 -15 11 -17z m61 -20 c-3 -10
-5 -2 -5 17 0 19 2 27 5 18 2 -10 2 -26 0 -35z m-1255 11 c-7 -12 -11 -13 -17
-4 -4 7 -2 16 6 21 18 11 23 4 11 -17z m43 16 c3 -6 -1 -7 -9 -4 -18 7 -21 14
-7 14 6 0 13 -4 16 -10z m1055 2 c0 -10 -22 -32 -32 -32 -5 0 -3 9 4 20 13 20
28 27 28 12z m300 -16 c0 -7 -7 -19 -15 -26 -16 -13 -20 -3 -9 24 8 20 24 21
24 2z m-2053 -18 c-3 -8 -6 -5 -6 6 -1 11 2 17 5 13 3 -3 4 -12 1 -19z m190
-20 c-3 -8 -6 -5 -6 6 -1 11 2 17 5 13 3 -3 4 -12 1 -19z m401 -5 l42 -24 0
-254 c0 -140 -3 -255 -7 -255 -5 0 -17 7 -27 15 -16 12 -54 15 -178 15 l-158
0 0 258 c0 142 3 262 7 266 4 4 68 6 143 5 123 -1 139 -3 178 -26z m430 -240
l2 -263 -153 0 c-141 0 -157 -2 -181 -21 l-26 -20 0 259 0 260 28 18 c47 32
54 33 192 31 l135 -2 3 -262z m984 239 c17 -7 17 -8 -1 -19 -16 -10 -20 -9
-24 8 -5 20 -2 22 25 11z m147 -14 c-17 -34 -19 -34 -19 -5 0 18 5 27 15 27
13 0 14 -4 4 -22z m-2132 -35 c-3 -10 -5 -2 -5 17 0 19 2 27 5 18 2 -10 2 -26
0 -35z m1683 27 c0 -11 -4 -20 -10 -20 -5 0 -10 9 -10 20 0 11 5 20 10 20 6 0
10 -9 10 -20z m210 0 c0 -5 -4 -10 -10 -10 -5 0 -10 5 -10 10 0 6 5 10 10 10
6 0 10 -4 10 -10z m159 -41 c-11 -6 -11 -11 -1 -21 15 -15 16 -28 2 -28 -5 0
-10 7 -10 15 0 8 -5 15 -10 15 -6 0 -3 12 7 26 10 17 19 22 21 14 3 -7 -2 -16
-9 -21z m145 -39 c-10 -10 -21 23 -16 48 6 26 6 26 13 -8 4 -19 5 -37 3 -40z
m-434 28 c0 -16 -3 -19 -11 -11 -6 6 -8 16 -5 22 11 17 16 13 16 -11z m48 3
c3 -8 -1 -12 -9 -9 -7 2 -15 10 -17 17 -3 8 1 12 9 9 7 -2 15 -10 17 -17z m-8
-57 c0 -16 -16 -19 -25 -4 -8 13 4 32 16 25 5 -4 9 -13 9 -21z m90 16 c0 -5
-7 -10 -15 -10 -8 0 -15 5 -15 10 0 6 7 10 15 10 8 0 15 -4 15 -10z m120 0
c10 -6 12 -12 5 -19 -7 -7 -14 -4 -23 9 -13 21 -6 25 18 10z m-413 -37 c-3
-10 -5 -4 -5 12 0 17 2 24 5 18 2 -7 2 -21 0 -30z m463 -3 c0 -5 -5 -10 -11
-10 -5 0 -7 5 -4 10 3 6 8 10 11 10 2 0 4 -4 4 -10z m-173 -6 c-3 -3 -12 -4
-19 -1 -8 3 -5 6 6 6 11 1 17 -2 13 -5z m-290 -86 c-3 -7 -5 -2 -5 12 0 14 2
19 5 13 2 -7 2 -19 0 -25z m178 23 c3 -5 1 -12 -5 -16 -5 -3 -10 1 -10 9 0 18
6 21 15 7z m115 -1 c0 -5 -4 -10 -10 -10 -5 0 -10 5 -10 10 0 6 5 10 10 10 6
0 10 -4 10 -10z m85 0 c3 -5 -1 -10 -9 -10 -9 0 -16 5 -16 10 0 6 4 10 9 10 6
0 13 -4 16 -10z m237 -36 c-4 -43 -20 -70 -20 -33 0 13 -2 33 -5 44 -5 25 1
37 16 32 7 -2 11 -20 9 -43z m1838 42 c0 -2 -76 -88 -169 -192 -93 -104 -167
-192 -165 -195 2 -3 111 -28 244 -55 132 -27 240 -52 240 -55 0 -17 -360 -165
-555 -229 -128 -42 -464 -130 -494 -130 -13 0 -23 29 -43 123 -15 67 -41 182
-58 255 -16 73 -30 137 -30 142 0 5 21 12 48 15 269 37 585 135 865 270 126
60 117 56 117 51z m-2020 -16 c0 -5 -7 -10 -15 -10 -8 0 -15 5 -15 10 0 6 7
10 15 10 8 0 15 -4 15 -10z m-185 -21 c-10 -15 -25 -10 -19 6 4 8 10 12 15 9
5 -3 7 -10 4 -15z m203 -13 c-2 -3 6 -12 17 -20 17 -13 17 -15 4 -16 -9 0 -20
7 -23 16 -7 19 -7 55 1 37 2 -7 3 -15 1 -17z m-258 -26 c0 -5 -4 -10 -9 -10
-6 0 -13 5 -16 10 -3 6 1 10 9 10 9 0 16 -4 16 -10z m356 -20 c-4 -22 -1 -32
9 -36 7 -3 11 -12 8 -20 -8 -21 -23 -17 -23 6 0 11 -4 20 -10 20 -11 0 -14 43
-3 53 16 16 25 5 19 -23z m-256 0 c0 -5 -5 -10 -11 -10 -5 0 -7 5 -4 10 3 6 8
10 11 10 2 0 4 -4 4 -10z m-183 -16 c-3 -3 -12 -4 -19 -1 -8 3 -5 6 6 6 11 1
17 -2 13 -5z m153 -4 c0 -5 -2 -10 -4 -10 -3 0 -8 5 -11 10 -3 6 -1 10 4 10 6
0 11 -4 11 -10z m33 -16 c9 -9 -4 -35 -14 -28 -5 3 -9 12 -9 20 0 14 12 19 23
8z m207 -4 c0 -5 -4 -10 -10 -10 -5 0 -10 5 -10 10 0 6 5 10 10 10 6 0 10 -4
10 -10z m-111 -44 c15 -18 15 -18 -6 -7 -14 7 -23 21 -22 34 0 15 2 17 6 7 3
-8 13 -24 22 -34z m-163 7 c-10 -10 -19 5 -10 18 6 11 8 11 12 0 2 -7 1 -15
-2 -18z m-96 -16 c0 -6 -6 -3 -13 7 -13 17 -14 18 -20 2 -4 -10 -12 -14 -18
-10 -9 5 -7 11 6 20 19 14 45 3 45 -19z m70 -22 c0 -8 -4 -15 -10 -15 -5 0 -7
7 -4 15 4 8 8 15 10 15 2 0 4 -7 4 -15z m94 0 c-4 -8 -8 -15 -10 -15 -2 0 -4
7 -4 15 0 8 4 15 10 15 5 0 7 -7 4 -15z m871 -16 c104 -6 191 -12 193 -14 2
-1 30 -121 63 -266 32 -145 61 -274 64 -286 6 -28 8 -28 -57 -3 -123 45 -218
61 -398 67 -332 10 -676 -55 -1310 -247 -640 -195 -783 -236 -1000 -291 -377
-94 -679 -139 -935 -139 l-133 0 -5 28 c-3 15 -29 127 -57 250 -27 123 -50
227 -50 231 0 4 75 12 167 19 418 30 651 85 1538 362 792 247 1305 324 1920
289z m-1672 -46 c-7 -2 -19 -2 -25 0 -7 3 -2 5 12 5 14 0 19 -2 13 -5z m40
-12 c2 -10 1 -25 -4 -32 -6 -10 -9 -4 -9 19 0 36 5 42 13 13z m62 9 c-3 -5
-10 -10 -16 -10 -5 0 -9 5 -9 10 0 6 7 10 16 10 8 0 12 -4 9 -10z m45 -5 c0
-8 -2 -15 -4 -15 -2 0 -6 7 -10 15 -3 8 -1 15 4 15 6 0 10 -7 10 -15z m-250
-49 c0 -2 -7 -6 -15 -10 -8 -3 -15 -1 -15 4 0 6 7 10 15 10 8 0 15 -2 15 -4z
m199 -22 c-6 -8 -17 -14 -23 -14 -6 0 -4 5 4 10 8 5 11 10 7 10 -5 0 -5 5 -2
10 4 6 11 8 16 4 6 -4 6 -11 -2 -20z m-1014 6 c3 -5 1 -10 -4 -10 -6 0 -11 5
-11 10 0 6 2 10 4 10 3 0 8 -4 11 -10z m100 -10 c3 -5 -1 -10 -10 -10 -9 0
-13 5 -10 10 3 6 8 10 10 10 2 0 7 -4 10 -10z m513 3 c-10 -2 -28 -2 -40 0
-13 2 -5 4 17 4 22 1 32 -1 23 -4z m-791 -60 c-3 -10 -5 -2 -5 17 0 19 2 27 5
18 2 -10 2 -26 0 -35z m1133 37 c-8 -5 -19 -10 -25 -10 -5 0 -3 5 5 10 8 5 20
10 25 10 6 0 3 -5 -5 -10z m-326 -48 c2 -4 -11 -6 -30 -4 -19 2 -34 6 -34 8 0
8 59 4 64 -4z m-265 -106 c-2 -2 -17 -6 -34 -10 -22 -5 -26 -4 -15 4 14 9 59
15 49 6z m-12 -32 c-3 -3 -12 -4 -19 -1 -8 3 -5 6 6 6 11 1 17 -2 13 -5z
m-567 -34 c0 -5 7 -7 15 -4 8 4 15 1 15 -5 0 -6 -11 -10 -25 -9 -23 2 -37 28
-15 28 6 0 10 -4 10 -10z m250 -16 c0 -2 -11 -4 -25 -4 -14 0 -25 4 -25 9 0 4
11 6 25 3 14 -2 25 -6 25 -8z m125 6 c15 -7 9 -9 -25 -9 -33 -1 -41 2 -30 9
18 12 28 12 55 0z m-292 -7 c-7 -2 -21 -2 -30 0 -10 3 -4 5 12 5 17 0 24 -2
18 -5z m-342 -88 c6 -41 12 -78 12 -82 1 -11 -105 -29 -273 -48 -158 -17 -284
-20 -275 -6 13 22 158 110 230 140 77 32 215 69 267 70 25 1 27 -2 39 -74z
m-441 -19 c0 -2 -19 -16 -41 -31 -23 -15 -61 -45 -84 -66 l-42 -39 48 -212
c27 -117 49 -218 49 -225 0 -6 -31 -16 -72 -23 -252 -41 -569 -150 -852 -292
-32 -16 -60 -28 -61 -26 -2 2 76 91 174 198 l179 195 -42 13 c-54 16 -315 68
-389 77 -31 4 -59 11 -62 15 -10 16 439 198 705 286 92 30 457 132 478 133 6
1 12 -1 12 -3z m3645 -76 c98 -25 188 -61 178 -70 -13 -13 -275 -52 -284 -43
-4 4 -19 38 -33 75 l-25 67 47 -6 c26 -3 79 -14 117 -23z m-362 13 c-13 -2
-33 -2 -45 0 -13 2 -3 4 22 4 25 0 35 -2 23 -4z m-190 -30 c-7 -2 -19 -2 -25
0 -7 3 -2 5 12 5 14 0 19 -2 13 -5z m-136 -9 c-3 -3 -12 -4 -19 -1 -8 3 -5 6
6 6 11 1 17 -2 13 -5z m193 -4 c8 -5 11 -10 5 -10 -5 0 -17 5 -25 10 -8 5 -10
10 -5 10 6 0 17 -5 25 -10z m250 -56 c3 11 9 15 13 10 8 -14 -9 -38 -22 -30
-6 4 -10 17 -10 29 2 20 2 19 7 -3 4 -22 5 -23 12 -6z m-723 0 c-3 -3 -12 -4
-19 -1 -8 3 -5 6 6 6 11 1 17 -2 13 -5z m-40 -10 c-3 -3 -12 -4 -19 -1 -8 3
-5 6 6 6 11 1 17 -2 13 -5z m27 -19 c-7 -17 -20 -20 -28 -6 -4 5 0 12 6 14 23
9 28 7 22 -8z m26 -46 c0 -5 -7 -9 -15 -9 -8 0 -15 7 -15 15 0 9 6 12 15 9 8
-4 15 -10 15 -15z m-353 -5 c-3 -3 -12 -4 -19 -1 -8 3 -5 6 6 6 11 1 17 -2 13
-5z m587 -27 c36 -36 43 -109 16 -181 -12 -31 -20 -60 -17 -62 2 -3 28 23 57
58 58 70 99 98 146 98 71 0 100 -69 56 -130 -26 -35 -27 -40 -6 -40 30 0 74
-56 74 -94 0 -74 -98 -99 -215 -55 -31 12 -59 19 -61 16 -3 -3 24 -21 59 -41
101 -56 142 -114 121 -171 -15 -39 -103 -58 -140 -30 -28 21 -31 19 -38 -24
-13 -86 -111 -98 -152 -19 -23 45 -14 174 15 224 23 39 25 44 12 44 -4 0 -24
-26 -44 -57 -58 -94 -103 -123 -193 -123 -70 0 -94 56 -56 130 l17 35 -35 20
c-58 34 -66 107 -15 141 41 27 104 20 185 -21 144 -72 151 -69 28 14 -85 56
-108 89 -108 150 0 71 70 101 123 54 9 -9 18 -14 20 -12 1 2 9 18 18 34 16 29
70 65 97 65 7 0 23 -11 36 -23z m-313 -21 c1 5 1 11 1 14 0 3 8 6 18 6 10 0
17 -3 14 -7 -2 -4 -1 -9 3 -12 5 -2 2 -2 -4 -1 -7 2 -19 -7 -28 -19 -14 -20
-15 -20 -15 -2 0 16 -2 17 -9 6 -7 -10 -9 -6 -8 13 2 24 3 25 15 9 6 -9 13
-13 13 -7z m-454 -2 c-3 -3 -12 -4 -19 -1 -8 3 -5 6 6 6 11 1 17 -2 13 -5z
m-44 -31 c-7 -2 -19 -2 -25 0 -7 3 -2 5 12 5 14 0 19 -2 13 -5z m1407 -40 c0
-11 -4 -11 -20 -3 -11 6 -20 15 -20 19 0 5 9 7 20 4 11 -3 20 -12 20 -20z
m-930 1 c0 -9 -7 -14 -17 -12 -25 5 -28 28 -4 28 12 0 21 -6 21 -16z m410 -19
c0 -5 -5 -3 -10 5 -5 8 -10 20 -10 25 0 6 5 3 10 -5 5 -8 10 -19 10 -25z m546
-73 c-10 -10 -29 15 -21 28 6 9 10 8 17 -4 6 -10 7 -20 4 -24z m-941 15 c3 -4
2 -5 -2 -2 -3 3 -12 0 -20 -7 -7 -6 -16 -8 -20 -4 -3 3 0 6 8 7 8 0 6 4 -6 9
-17 8 -16 9 7 7 15 -2 30 -6 33 -10z m652 -69 c-3 -8 -6 -5 -6 6 -1 11 2 17 5
13 3 -3 4 -12 1 -19z m-1837 -19 c0 -5 -4 -9 -10 -9 -5 0 -10 7 -10 16 0 8 5
12 10 9 6 -3 10 -10 10 -16z m1043 4 c-4 -11 -3 -14 5 -9 7 4 12 5 12 2 0 -3
-10 -10 -22 -17 -17 -9 -20 -9 -15 4 3 8 0 20 -6 26 -8 8 -5 11 11 11 16 0 20
-4 15 -17z m-982 -43 c31 -25 12 -26 -21 0 -14 11 -20 20 -14 20 7 0 22 -9 35
-20z m99 10 c0 -5 -5 -10 -11 -10 -5 0 -7 5 -4 10 3 6 8 10 11 10 2 0 4 -4 4
-10z m1977 -12 c-3 -8 -6 -5 -6 6 -1 11 2 17 5 13 3 -3 4 -12 1 -19z m-2307
-8 c0 -5 -4 -10 -10 -10 -5 0 -10 5 -10 10 0 6 5 10 10 10 6 0 10 -4 10 -10z
m160 -16 c0 -8 -5 -12 -10 -9 -6 4 -8 11 -5 16 9 14 15 11 15 -7z m140 -17 c0
-16 -6 -23 -20 -23 -24 0 -24 1 -2 25 22 25 22 25 22 -2z m-376 -28 c-3 -5
-12 -9 -20 -9 -14 0 -20 31 -7 44 9 9 34 -24 27 -35z m1273 -1 c-3 -8 -6 -5
-6 6 -1 11 2 17 5 13 3 -3 4 -12 1 -19z m-1547 -40 c0 -3 -11 -1 -25 5 -14 7
-25 18 -25 25 0 9 7 8 25 -5 13 -10 25 -21 25 -25z m-108 3 c-9 -16 -18 -28
-21 -26 -4 5 27 55 34 55 2 0 -4 -13 -13 -29z m788 8 c0 -6 -4 -7 -10 -4 -5 3
-10 11 -10 16 0 6 5 7 10 4 6 -3 10 -11 10 -16z m1711 -10 c-5 -13 -10 -19
-10 -12 -1 15 10 45 15 40 3 -2 0 -15 -5 -28z m-2074 5 c-3 -3 -12 -4 -19 -1
-8 3 -5 6 6 6 11 1 17 -2 13 -5z m253 -4 c0 -5 -4 -10 -10 -10 -5 0 -10 5 -10
10 0 6 5 10 10 10 6 0 10 -4 10 -10z m-530 -41 c0 -6 -4 -7 -10 -4 -5 3 -10
11 -10 16 0 6 5 7 10 4 6 -3 10 -11 10 -16z m480 12 c0 -5 -7 -14 -15 -21 -16
-14 -18 -10 -9 14 6 17 24 22 24 7z m-411 -66 c1 -17 -1 -17 -9 -5 -5 8 -9 26
-9 40 0 23 1 23 9 5 5 -11 9 -29 9 -40z m609 24 c-3 -8 -7 -3 -11 10 -4 17 -3
21 5 13 5 -5 8 -16 6 -23z m896 15 c3 -8 2 -12 -4 -9 -6 3 -10 10 -10 16 0 14
7 11 14 -7z m709 -1 c-7 -2 -13 -11 -13 -18 0 -8 -4 -16 -9 -19 -12 -8 -8 27
4 36 6 4 15 7 20 7 6 0 4 -3 -2 -6z m-1893 -43 c-24 -19 -40 -25 -40 -15 0 5
51 34 60 34 3 0 -6 -8 -20 -19z m-583 -32 c-3 -7 -5 -2 -5 12 0 14 2 19 5 13
2 -7 2 -19 0 -25z m647 7 c-4 -8 -8 -15 -10 -15 -2 0 -4 7 -4 15 0 8 4 15 10
15 5 0 7 -7 4 -15z m1813 -7 c-3 -8 -6 -5 -6 6 -1 11 2 17 5 13 3 -3 4 -12 1
-19z m-1577 -3 c0 -8 -4 -15 -10 -15 -5 0 -7 7 -4 15 4 8 8 15 10 15 2 0 4 -7
4 -15z m-370 -4 c0 -5 -9 -11 -20 -14 -11 -3 -20 -1 -20 3 0 5 8 11 18 13 9 3
18 5 20 6 1 0 2 -3 2 -8z m-143 -7 c-3 -3 -12 -4 -19 -1 -8 3 -5 6 6 6 11 1
17 -2 13 -5z m103 -34 c0 -13 -11 -13 -30 0 -12 8 -11 10 8 10 12 0 22 -4 22
-10z m170 0 c0 -5 -4 -10 -10 -10 -5 0 -10 5 -10 10 0 6 5 10 10 10 6 0 10 -4
10 -10z m-270 -10 c0 -5 -8 -10 -17 -10 -15 0 -16 2 -3 10 19 12 20 12 20 0z
m475 0 c-3 -5 -11 -10 -16 -10 -6 0 -7 5 -4 10 3 6 11 10 16 10 6 0 7 -4 4
-10z m-556 -29 c-3 -6 -10 -7 -18 -2 -7 5 -10 14 -6 21 9 14 29 -2 24 -19z
m236 19 c3 -5 2 -10 -4 -10 -5 0 -13 5 -16 10 -3 6 -2 10 4 10 5 0 13 -4 16
-10z m-325 -20 c0 -5 -4 -10 -10 -10 -5 0 -10 5 -10 10 0 6 5 10 10 10 6 0 10
-4 10 -10z m440 0 c0 -5 -2 -10 -4 -10 -3 0 -8 5 -11 10 -3 6 -1 10 4 10 6 0
11 -4 11 -10z m1313 -3 c7 -19 -8 -43 -17 -28 -4 6 -1 11 6 12 10 0 10 2 1 6
-15 5 -17 23 -4 23 5 0 11 -6 14 -13z m-1223 -7 c-20 -13 -40 -13 -40 0 0 6
12 10 28 10 21 0 24 -2 12 -10z m1193 -20 c-3 -11 -7 -20 -9 -20 -2 0 -4 9 -4
20 0 11 4 20 9 20 5 0 7 -9 4 -20z m-1613 -16 c0 -8 -4 -12 -10 -9 -5 3 -10
10 -10 16 0 5 5 9 10 9 6 0 10 -7 10 -16z m1618 -122 c-40 -97 -58 -124 -58
-84 0 17 92 193 98 188 1 -2 -17 -48 -40 -104z m480 90 c6 -18 -15 -14 -22 4
-4 10 -1 14 6 12 6 -2 14 -10 16 -16z m-2083 -11 c3 -5 1 -12 -5 -16 -5 -3
-10 1 -10 9 0 18 6 21 15 7z m1687 -13 c-7 -7 -12 -8 -12 -2 0 14 12 26 19 19
2 -3 -1 -11 -7 -17z m-178 -4 c3 -8 2 -12 -4 -9 -6 3 -10 10 -10 16 0 14 7 11
14 -7z m73 -6 c-3 -8 -6 -5 -6 6 -1 11 2 17 5 13 3 -3 4 -12 1 -19z m976 2
c-3 -11 -7 -20 -9 -20 -2 0 -4 9 -4 20 0 11 4 20 9 20 5 0 7 -9 4 -20z m18
-23 c-10 -9 -11 -8 -5 6 3 10 9 15 12 12 3 -3 0 -11 -7 -18z m-1030 -50 c-6
-6 -11 -7 -11 -1 0 5 -5 2 -11 -6 -9 -13 -10 -13 -6 0 2 8 11 14 18 12 8 -1 7
4 -5 12 -10 8 -15 20 -11 26 5 8 12 4 22 -10 11 -16 12 -25 4 -33z m235 37
c18 -15 18 -15 -3 -5 -29 15 -33 14 -33 -6 0 -9 -3 -14 -6 -10 -8 8 3 37 14
37 4 0 17 -7 28 -16z m121 10 c-3 -3 -12 -4 -19 -1 -8 3 -5 6 6 6 11 1 17 -2
13 -5z m-1673 -19 c-4 -8 -11 -15 -16 -15 -6 0 -5 6 2 15 7 8 14 15 16 15 2 0
1 -7 -2 -15z m-163 -22 c13 -15 12 -15 -8 -4 -24 12 -29 21 -14 21 5 0 15 -7
22 -17z m1572 2 c-3 -9 -8 -14 -10 -11 -3 3 -2 9 2 15 9 16 15 13 8 -4z
m-1493 -35 c0 -5 -4 -10 -10 -10 -5 0 -10 5 -10 10 0 6 5 10 10 10 6 0 10 -4
10 -10z m1570 -30 c0 -5 -4 -10 -10 -10 -5 0 -10 5 -10 10 0 6 5 10 10 10 6 0
10 -4 10 -10z m-230 -37 c-1 -27 -1 -27 -15 -9 -19 25 -19 36 0 36 10 0 15
-10 15 -27z m817 21 c-3 -3 -12 -4 -19 -1 -8 3 -5 6 6 6 11 1 17 -2 13 -5z
m108 -12 c-3 -3 -11 0 -18 7 -9 10 -8 11 6 5 10 -3 15 -9 12 -12z m-958 -148
c-3 -3 -12 -4 -19 -1 -8 3 -5 6 6 6 11 1 17 -2 13 -5z m298 -24 c-3 -5 -1 -10
6 -10 7 0 10 -3 6 -6 -9 -9 -28 6 -22 17 4 5 8 9 11 9 3 0 2 -4 -1 -10z m-785
-294 c0 -3 -4 -8 -10 -11 -5 -3 -10 -1 -10 4 0 6 5 11 10 11 6 0 10 -2 10 -4z
m-23 -48 c-3 -8 -6 -5 -6 6 -1 11 2 17 5 13 3 -3 4 -12 1 -19z"/>
<path d="M3976 2278 c-15 -13 -29 -39 -32 -58 l-7 -35 22 28 c13 15 32 27 46
27 65 0 73 -78 20 -188 -20 -43 -29 -72 -22 -72 7 1 46 9 87 19 l75 18 3 48
c3 48 3 48 -15 28 -15 -17 -103 -49 -103 -37 0 2 14 27 31 56 43 72 49 131 19
163 -31 33 -89 34 -124 3z"/>
<path d="M3238 2085 c-121 -39 -162 -169 -82 -264 89 -106 294 -26 294 116 0
116 -97 184 -212 148z m73 -28 c30 -23 52 -82 57 -153 4 -68 3 -72 -23 -92
-34 -27 -55 -28 -88 -2 -55 44 -83 195 -43 239 21 23 71 28 97 8z"/>
<path d="M2836 1962 c-4 -7 -29 -12 -55 -12 -80 0 -132 -56 -110 -120 13 -36
43 -53 121 -70 66 -13 94 -40 77 -72 -25 -47 -109 -42 -149 9 -23 29 -25 20
-9 -43 9 -36 14 -42 23 -30 6 8 36 16 70 18 51 4 63 9 88 37 63 70 23 138 -93
160 -35 7 -70 18 -76 23 -37 30 13 86 64 73 16 -3 41 -18 56 -33 l29 -27 -8
30 c-13 55 -20 69 -28 57z"/>
<path d="M2345 1840 c-16 -5 -65 -16 -107 -25 l-76 -17 5 -36 c8 -50 19 -60
26 -23 4 17 17 37 29 45 31 19 88 31 88 17 0 -5 -22 -74 -50 -152 -27 -79 -48
-145 -45 -147 5 -5 249 48 265 58 9 5 10 23 5 61 l-7 53 -13 -37 c-7 -21 -18
-44 -25 -52 -14 -16 -118 -50 -127 -42 -3 3 18 74 45 156 54 163 55 160 -13
141z"/>
</g>
</svg>
