<?xml version="1.0" standalone="no"?>
<!DOCTYPE svg PUBLIC "-//W3C//DTD SVG 20010904//EN"
 "http://www.w3.org/TR/2001/REC-SVG-20010904/DTD/svg10.dtd">
<svg version="1.0" xmlns="http://www.w3.org/2000/svg"
 width="640.000000pt" height="367.000000pt" viewBox="0 0 640.000000 367.000000"
 preserveAspectRatio="xMidYMid meet">

<g transform="translate(0.000000,367.000000) scale(0.100000,-0.100000)"
fill="#000000" stroke="none">
<path d="M3330 2959 c0 -662 1 -700 18 -695 9 3 62 16 117 30 344 85 635 126
1018 142 156 7 158 7 152 28 -4 11 -10 91 -12 176 -4 119 -1 177 12 245 34
187 112 368 244 568 l71 107 -38 -16 c-611 -262 -1131 -240 -1510 66 -34 27
-64 50 -67 50 -3 0 -5 -315 -5 -701z"/>
</g>
</svg>
